# xmcd
#
# Track frame offsets:
#   150
#   10262
#   23852
#   35868
#   46347
#   58072
#   69527
#   79996
#   89997
#   99905
#
# Disc length: 1522 seconds
#
# Revision: 0
# Processed by: cddbd v1.4PL0 Copyright (c) Steve Scherf et al.
# Submitted via: uFREEDB 1.6.0
#
DISCID=8705f00a
DTITLE=Martin, Dean - Somewhere There's A Someone and The Silencers (New Tracks)
DYEAR=1966
DGENRE=Country
TTITLE0=Somewhere There's A Someone
TTITLE1=That Old Clock On The Wall
TTITLE2=South Of The Border
TTITLE3=Empty Saddles In The Old Corral
TTITLE4=Red Sails In The Sunset
TTITLE5=On The Sunny Side Of The Street
TTITLE6=The Glory Of Love
TTITLE7=Side By Side
TTITLE8=If You Knew Susie
TTITLE9=The Last Round-Up
EXTD=
EXTT0=
EXTT1=
EXTT2=
EXTT3=
EXTT4=
EXTT5=
EXTT6=
EXTT7=
EXTT8=
EXTT9=
PLAYORDER=
